PathFileType	3	(X/Y/Z)	F:\ViconData\AntennenMessung\Messung1\Session1\ID18.trc
DataRate	CameraRate	NumFrames	NumMarkers	Units	OrigDataRate	OrigDataStartFrame	OrigNumFrames
120.0	120.0	5	70	mm	120.0	256	1020	
Frame#	Time	Ashort			Along			Atop			A4			Bshort			Blong			Btop			B4			Cshort			Clong			Ctop			C4			Dshort			Dlong			Dtop			D4			Eshort			Elong			Etop			E4			Fshort			Flong			Ftop			F4			Gshort			Glong			Gtop			G4			Hshort			Hlong			Htop			H4			I1			I2			I3			I4			I5			WandAshort			WandAlong			WandAtop			WandA4			WandA15			WandBshort			WandB4			WandB5			WandBtop			WandBlong			WandCshort			WandClong			WandCtop			WandC4			WandC5			Acenter			Aantenna			Bcenter			Bantenna			Ccenter			Cantenna			Dcenter			Dantenna			Ecenter			Eantenna			Fcenter			Fantenna			Gcenter			Gantenna			Hcenter			Hantenna			Icenter			Iantenna			
		X1	Y1	Z1	X2	Y2	Z2	X3	Y3	Z3	X4	Y4	Z4	X5	Y5	Z5	X6	Y6	Z6	X7	Y7	Z7	X8	Y8	Z8	X9	Y9	Z9	X10	Y10	Z10	X11	Y11	Z11	X12	Y12	Z12	X13	Y13	Z13	X14	Y14	Z14	X15	Y15	Z15	X16	Y16	Z16	X17	Y17	Z17	X18	Y18	Z18	X19	Y19	Z19	X20	Y20	Z20	X21	Y21	Z21	X22	Y22	Z22	X23	Y23	Z23	X24	Y24	Z24	X25	Y25	Z25	X26	Y26	Z26	X27	Y27	Z27	X28	Y28	Z28	X29	Y29	Z29	X30	Y30	Z30	X31	Y31	Z31	X32	Y32	Z32	X33	Y33	Z33	X34	Y34	Z34	X35	Y35	Z35	X36	Y36	Z36	X37	Y37	Z37	X38	Y38	Z38	X39	Y39	Z39	X40	Y40	Z40	X41	Y41	Z41	X42	Y42	Z42	X43	Y43	Z43	X44	Y44	Z44	X45	Y45	Z45	X46	Y46	Z46	X47	Y47	Z47	X48	Y48	Z48	X49	Y49	Z49	X50	Y50	Z50	X51	Y51	Z51	X52	Y52	Z52	X53	Y53	Z53	X54	Y54	Z54	X55	Y55	Z55	X56	Y56	Z56	X57	Y57	Z57	X58	Y58	Z58	X59	Y59	Z59	X60	Y60	Z60	X61	Y61	Z61	X62	Y62	Z62	X63	Y63	Z63	X64	Y64	Z64	X65	Y65	Z65	X66	Y66	Z66	X67	Y67	Z67	X68	Y68	Z68	X69	Y69	Z69	X70	Y70	Z70	
256	2.125	-1038.2119	214.4379	-1644.2795	-1109.3837	204.01413	-1599.306	-1063.7745	173.19313	-1625.6825	-1054.2225	262.2308	-1634.9879	-1353.0536	234.86835	1003.7638	-1281.4838	227.11217	1052.5247	-1322.8676	193.84109	1020.9938	-1284.7629	287.85135	1052.8256	813.84656	187.70528	1209.5035	892.17688	178.49628	1179.278	844.54926	145.48041	1198.2551	860.64813	292.59134	1167.6986	1115.7037	209.80537	-1401.788	1056.1868	194.04285	-1460.33	1095.1277	162.41573	-1423.9401	1069.7703	238.65776	-1425.8351	-1204.5275	1685.9539	-1563.2188	-1129.1541	1688.2902	-1606.068	-1173.2058	1724.4252	-1581.936	-1134.0723	1580.9469	-1603.8822	-1239.6265	1699.1418	1119.4731	-1309.0439	1698.2205	1071.7092	-1270.423	1736.2938	1096.8838	-1245.4675	1592.7184	1110.6914	988.9176	1664.2648	1162.2534	957.4975	1700.2888	1183.8835	922.79047	1662.0826	1215.1729	939.78271	1659.4327	1159.9125	998.95374	1668.4536	-1579.4474	1058.6674	1669.9586	-1518.6371	1024.9034	1708.0194	-1551.1102	1059.1914	1672.1316	-1585.4663	-261.34229	164.29984	-221.62415	-346.74783	172.91931	-224.66252	-303.28952	129.11281	-221.78682	-299.58157	169.47159	-191.62811	-297.81125	166.31693	-270.13702																																														-1068.7274	209.96861	-1624.9968	-1073.9319	248.61305	-1624.2762	-1321.635	231.46344	1025.1694	-1320.366	270.20493	1029.4691	848.25494	183.66	1196.2261	852.01727	222.4234	1194.1661	1088.7531	202.66772	-1428.297	1082.6873	240.96939	-1432.4431	-1171.9369	1686.9639	-1581.7462	-1170.6165	1647.9868	-1581.549	-1270.738	1698.7288	1098.0662	-1271.0649	1659.7495	1099.2932	953.03503	1705.4049	1186.9556	972.72754	1733.6123	1168.583	1026.3395	1669.1437	-1551.5583	1027.7793	1630.1729	-1552.0077	-299.30933	168.13162	-222.97485	-295.35339	206.91249	-224.15567
257	2.1333333	-1038.2004	214.4688	-1644.3387	-1109.394	204.13319	-1599.3217	-1063.7117	173.19806	-1625.7186	-1054.2164	262.25024	-1634.9797	-1353.025	234.88789	1003.7582	-1281.3899	227.06705	1052.5662	-1322.9122	193.78914	1021.0067	-1284.6412	287.86987	1052.8427	813.86981	187.75711	1209.5176	892.23901	178.55586	1179.2174	844.37854	145.62277	1198.3325	860.72607	292.60822	1167.7246	1115.6892	209.53375	-1401.6136	1056.1875	194.05992	-1460.3151	1095.1414	162.42587	-1423.9724	1069.787	238.65167	-1425.8059	-1204.5287	1685.9366	-1563.2097	-1129.1625	1688.3081	-1606.0598	-1173.1948	1724.4012	-1581.9316	-1134.0908	1580.9468	-1603.8472	-1239.6519	1699.188	1119.4966	-1309.0951	1698.3389	1071.7502	-1270.4354	1736.3282	1096.8917	-1245.4758	1592.7346	1110.6919	988.86749	1664.2338	1162.2517	957.52246	1700.3556	1183.8511	922.69287	1662.157	1215.1533	939.77869	1659.4346	1159.8993	998.95172	1668.4648	-1579.4615	1058.6704	1669.9529	-1518.655	1024.9043	1708.0073	-1551.1139	1059.1936	1672.1327	-1585.4696	-261.35861	164.31706	-221.56348	-346.74106	172.90437	-224.67459	-303.26324	129.15854	-221.92892	-299.6102	169.4716	-191.7061	-297.92221	166.30853	-270.19885																																														-1068.6573	210.04715	-1625.0801	-1073.8448	248.69484	-1624.4105	-1321.6243	231.45969	1025.1528	-1320.2998	270.20325	1029.417	848.06665	183.74208	1196.296	851.81714	222.50604	1194.225	1088.8107	202.54382	-1428.1305	1082.7633	240.86679	-1432.1027	-1171.915	1686.9629	-1581.7524	-1170.5826	1647.9861	-1581.5659	-1270.7958	1698.807	1098.0833	-1271.1703	1659.8285	1099.321	953.10565	1705.4454	1186.8945	972.88116	1733.5933	1168.5198	1026.3406	1669.1472	-1551.5736	1027.7812	1630.1765	-1552.0349	-299.30627	168.13362	-222.94618	-295.36835	206.92108	-223.95856
258	2.1416667	-1038.202	214.45879	-1644.2939	-1109.3904	204.10599	-1599.3412	-1063.7362	173.16856	-1625.7314	-1054.2355	262.2236	-1634.9771	-1353.0449	234.8905	1003.8072	-1281.406	227.10727	1052.4973	-1322.8557	193.84497	1020.9656	-1284.6272	287.91519	1052.7472	813.83472	187.75249	1209.4636	892.13312	178.45383	1179.3301	844.29663	145.66708	1198.2231	860.63782	292.62521	1167.5228	1115.6942	209.5472	-1401.6205	1056.1348	194.00569	-1460.3473	1095.1354	162.45399	-1423.9308	1069.8004	238.60362	-1425.7983	-1204.5212	1685.9362	-1563.2167	-1129.1698	1688.2742	-1606.0426	-1173.2396	1724.328	-1581.8497	-1134.0703	1580.9509	-1603.8843	-1239.656	1699.1902	1119.4965	-1309.0553	1698.2686	1071.7272	-1270.4337	1736.3209	1096.8848	-1245.4641	1592.7374	1110.6923	988.90631	1664.2635	1162.2701	957.53339	1700.3292	1183.8667	922.77917	1661.9486	1215.1699	939.79681	1659.3882	1159.9469	998.95996	1668.464	-1579.4498	1058.6893	1669.9528	-1518.6477	1024.9045	1708.015	-1551.1094	1059.1912	1672.1273	-1585.4722	-261.34888	164.27919	-221.59717	-346.74893	172.92291	-224.67081	-303.26416	129.06631	-221.80785	-299.66037	169.47502	-191.71887	-297.90225	166.30519	-270.21381																																														-1068.6693	210.02797	-1625.0548	-1073.842	248.6769	-1624.3455	-1321.6211	231.47644	1025.1646	-1320.3502	270.2153	1029.4873	848.06744	183.68701	1196.2889	851.91168	222.44698	1194.3171	1088.8132	202.53285	-1428.1255	1082.7688	240.85228	-1432.1364	-1171.996	1686.9453	-1581.7024	-1170.6993	1647.9672	-1581.5488	-1270.7616	1698.777	1098.0856	-1271.1022	1659.7983	1099.3323	953.17572	1705.3385	1186.8665	972.91229	1733.5118	1168.4889	1026.345	1669.1464	-1551.5728	1027.7894	1630.1759	-1552.0375	-299.27008	168.11736	-222.96199	-295.30368	206.89821	-224.10814
259	2.15	-1038.2277	214.4772	-1644.2073	-1109.3831	204.11024	-1599.3322	-1063.7653	173.16866	-1625.6838	-1054.2279	262.21686	-1634.9525	-1352.9998	234.88922	1003.7042	-1281.3492	227.10707	1052.5356	-1322.8328	193.85971	1020.9772	-1284.728	287.89429	1052.8156	813.86713	187.77321	1209.4689	892.29285	178.43163	1179.325	844.37689	145.56468	1198.287	860.68805	292.66833	1167.3995	1115.6792	209.5544	-1401.6027	1056.1989	194.07582	-1460.3644	1095.0505	162.33263	-1423.9431	1069.8257	238.65291	-1425.7836	-1204.5142	1685.9417	-1563.2269	-1129.1702	1688.3022	-1606.0642	-1173.2047	1724.4053	-1581.9371	-1134.0786	1580.9674	-1603.8969	-1239.6625	1699.1863	1119.4979	-1309.0687	1698.3209	1071.7535	-1270.3951	1736.255	1096.8718	-1245.4467	1592.7003	1110.6714	988.92126	1664.2512	1162.2532	957.49902	1700.3538	1183.8636	922.65906	1662.032	1215.0582	939.78174	1659.451	1159.8866	998.97876	1668.4376	-1579.4319	1058.6831	1669.953	-1518.6481	1024.9084	1708.0125	-1551.1198	1059.1874	1672.13	-1585.4691	-261.34338	164.28561	-221.55315	-346.73743	172.95871	-224.67876	-303.26584	129.13841	-221.90648	-299.6377	169.47633	-191.70915	-297.96033	166.38721	-270.17609																																														-1068.6992	210.03764	-1624.9899	-1073.8713	248.68631	-1624.2625	-1321.5724	231.4758	1025.1227	-1320.2743	270.21964	1029.3923	848.151	183.68951	1196.2914	851.98785	222.44727	1194.2625	1088.7731	202.55266	-1428.1835	1082.7914	240.87877	-1432.224	-1171.9275	1686.9626	-1581.754	-1170.598	1647.9857	-1581.5637	-1270.7715	1698.7983	1098.0979	-1271.1631	1659.8212	1099.3738	953.10803	1705.3987	1186.8834	972.89539	1733.5806	1168.574	1026.3495	1669.1322	-1551.5662	1027.7941	1630.1615	-1552.0134	-299.26703	168.13736	-222.94122	-295.29031	206.92043	-223.97023
260	2.1583333	-1038.2368	214.56961	-1644.2723	-1109.3892	204.04897	-1599.3047	-1063.7787	173.20084	-1625.6849	-1054.245	262.26379	-1634.953	-1352.9481	234.89754	1003.701	-1281.349	227.08368	1052.5095	-1322.8988	193.74748	1020.9968	-1284.7617	287.8522	1052.7974	813.89105	187.73807	1209.4111	892.13074	178.40071	1179.4108	844.30182	145.59204	1198.2236	860.61224	292.68762	1167.448	1115.72	209.81682	-1401.7722	1056.1736	194.04234	-1460.3257	1095.0574	162.37859	-1423.9419	1069.8218	238.67067	-1425.8303	-1204.5139	1685.9242	-1563.2168	-1129.1554	1688.3103	-1606.0961	-1173.2015	1724.4039	-1581.9381	-1134.062	1580.9379	-1603.879	-1239.6578	1699.187	1119.4962	-1309.066	1698.3047	1071.7435	-1270.4451	1736.3281	1096.8917	-1245.4742	1592.7466	1110.6863	988.86829	1664.2333	1162.2555	957.52771	1700.2754	1183.964	922.66211	1662.1691	1215.1613	939.771	1659.4261	1159.8964	998.96661	1668.4551	-1579.4424	1058.7981	1670.1251	-1518.6504	1024.9144	1708.0151	-1551.115	1059.1941	1672.127	-1585.4773	-261.3306	164.30544	-221.58479	-346.74023	172.93645	-224.68488	-303.27222	129.06229	-221.81448	-299.61194	169.44376	-191.71269	-297.96494	166.37981	-270.20255																																														-1068.7767	210.05396	-1624.9713	-1074.0171	248.69304	-1624.2231	-1321.5718	231.47334	1025.0898	-1320.2089	270.22214	1029.2939	848.10388	183.65498	1196.2925	851.9754	222.41251	1194.3263	1088.7064	202.66064	-1428.3352	1082.6676	240.96313	-1432.5128	-1171.917	1686.9562	-1581.7644	-1170.5801	1647.9795	-1581.5836	-1270.7855	1698.7913	1098.0803	-1271.1392	1659.8125	1099.3146	953.01282	1705.4674	1187.0912	972.78528	1733.6749	1168.8048	1026.4285	1669.2216	-1551.5396	1027.9495	1630.2535	-1551.9661	-299.28149	168.14053	-222.9623	-295.32111	206.92221	-224.10139
